<svg id="Layer_1" data-name="Layer 1" xmlns="http://www.w3.org/2000/svg" viewBox="0 0 93.04 31.24"><defs><style>.cls-1{fill:#fcc397;}.cls-1,.cls-10,.cls-2,.cls-3,.cls-4,.cls-5,.cls-6,.cls-7,.cls-8{fill-rule:evenodd;}.cls-2{fill:#fc9f95;}.cls-3{fill:#f77c88;}.cls-4{fill:#f25192;}.cls-5{fill:#d34ca3;}.cls-6{fill:#9a50a5;}.cls-7{fill:#59569e;}.cls-8{fill:#39477f;}.cls-10,.cls-9{fill:#1c233f;}</style></defs><g id="Layer_2" data-name="Layer 2"><g id="Layer_1-2" data-name="Layer 1-2"><g id="logo-ratio-_-clearance" data-name="logo-ratio- -clearance"><g id="realmLogo"><g id="Page-1-Copy-15"><g id="Logo"><path id="Melon" class="cls-1" d="M21.69,1.9a15.2,15.2,0,0,0-17,2.74C1.8,7.44,26.82,4.34,21.69,1.9Z"/><path id="Peach" class="cls-2" d="M27,6.14s-1.2,1.7-5,2.18a191.11,191.11,0,0,1-20.67,1A15.32,15.32,0,0,1,4.7,4.64,10.83,10.83,0,0,0,9.82,5c2.8-.53,5.28-2.13,8.05-2.79a12.58,12.58,0,0,1,3.82-.28A15.22,15.22,0,0,1,27,6.14Z"/><path id="Sexy-Salmon" class="cls-3" d="M30.17,13.24c0,.06-17.17,1.68-25.54,1.21a6.24,6.24,0,0,1-4.32-1.9A14.9,14.9,0,0,1,1.36,9.34a16.57,16.57,0,0,1,8-2.06c3.46,0,6.85,1.19,10.32,1.1A14.85,14.85,0,0,0,27,6.14,14.93,14.93,0,0,1,30.17,13.24Z"/><path id="Flamingo" class="cls-4" d="M30.36,15.62v.25A47.16,47.16,0,0,1,19.44,17,194.52,194.52,0,0,1,0,15.49a15.28,15.28,0,0,1,.31-2.94,11.18,11.18,0,0,0,7,1.63,20.06,20.06,0,0,0,5.51-1.67,33.43,33.43,0,0,1,5.41-2,14.08,14.08,0,0,1,12,2.73A14.55,14.55,0,0,1,30.36,15.62Z"/><path id="Mulberry" class="cls-5" d="M13.14,20.55C8.59,21.44.77,20.44.75,20.36A15.26,15.26,0,0,1,0,15.62v-.13a12.31,12.31,0,0,1,2.29-1.42,11.88,11.88,0,0,1,6.32-1.13,20.91,20.91,0,0,1,6.13,1.86,52.62,52.62,0,0,0,5,2C20,16.87,18.16,19.62,13.14,20.55Z"/><path id="Grape-Jelly" class="cls-6" d="M29.81,19.67c-.32.54-3.34,2.35-7.44,2.66-5.43.41-11.84-1.23-9.71-2.06C16,19,18.91,16.59,22.37,15.6a13.32,13.32,0,0,1,8,.27A14.86,14.86,0,0,1,29.81,19.67Z"/><path id="Indigo" class="cls-7" d="M28.34,23.19c-2.62,4.55-21.63,5.69-24.41,2.63A15.32,15.32,0,0,1,.75,20.36a12.18,12.18,0,0,1,7.7-1.54c3.4.46,6.44,2.36,9.8,3.1a14.89,14.89,0,0,0,8.18-.48,15.37,15.37,0,0,0,3.38-1.72A15.14,15.14,0,0,1,28.34,23.19Z"/><path id="East-Bay" class="cls-8" d="M28.36,23.15A15.18,15.18,0,0,1,7.65,28.8a15.38,15.38,0,0,1-3.72-3c.46.18,1,.33,1.45.47a15,15,0,0,0,8.11-.07c1.69-.5,3.27-1.29,4.92-1.88a22.37,22.37,0,0,1,10-1.18Z"/></g></g></g></g><path class="cls-9" d="M37.34,22.05V25a1.9,1.9,0,0,1,1.53-.78A2.17,2.17,0,0,1,41,26.44a1.48,1.48,0,0,1,0,.21,2.16,2.16,0,0,1-2.14,2.45,1.94,1.94,0,0,1-1.53-.74V29h-.78V22.05Zm1.53,6.39c.61,0,1.42-.38,1.42-1.86a1.51,1.51,0,0,0-1.38-1.66h-.14a1.55,1.55,0,0,0-1.53,1.76c.09.79.44,1.77,1.53,1.77Z"/><path class="cls-9" d="M45.83,24.34,43.89,29.8c-.37,1-.63,1.44-1.44,1.44a2.31,2.31,0,0,1-.69-.11v-.7a1.31,1.31,0,0,0,.52.07c.46,0,.63-.18.89-.94l.2-.59-1.53-4.58h.82l1.16,3.67,1.23-3.67Z"/><path class="cls-9" d="M55.45,29c0-.2.13-5.79.13-5.79L53.39,29h-.7l-2.14-5.69s.09,5.49.09,5.7h-.9V22.05H51l2.11,5.66,2.14-5.66h1.19V29Z"/><path class="cls-9" d="M60,24.21a2.17,2.17,0,0,1,2.19,2.17,1.77,1.77,0,0,1,0,.23,2.22,2.22,0,0,1-1.95,2.47l-.31,0A2.2,2.2,0,0,1,57.63,27a1.74,1.74,0,0,1,0-.32,2.29,2.29,0,0,1,2.1-2.44A1.92,1.92,0,0,1,60,24.21Zm-.09,4.26c.94,0,1.43-.73,1.43-1.93,0-.79-.32-1.71-1.36-1.71-1.45,0-1.53,1.53-1.53,1.87C58.5,27.25,58.63,28.47,59.89,28.47Z"/><path class="cls-9" d="M66.47,29V25.9a1,1,0,0,0-.89-1h-.16a1.21,1.21,0,0,0-1.23,1.19.28.28,0,0,0,0,.09v2.74h-.78V24.34h.78V25A1.78,1.78,0,0,1,67,24.83,2,2,0,0,1,67.31,26V29Z"/><path class="cls-9" d="M73,29a1.9,1.9,0,0,1-1.63,2.15,2,2,0,0,1-.49,0,1.9,1.9,0,0,1-2.09-1.68v0h.87c0,.72.53,1.07,1.27,1.07,1,0,1.28-.51,1.28-1.38v-.9a1.78,1.78,0,0,1-1.53.83,2.17,2.17,0,0,1-2.14-2.2,1.64,1.64,0,0,1,0-.23,2.19,2.19,0,0,1,1.89-2.45h.25A1.89,1.89,0,0,1,72.2,25v-.63H73Zm-2.21-4.13c-.8,0-1.44.6-1.44,1.74s.46,1.74,1.53,1.74,1.42-.81,1.42-1.8A1.56,1.56,0,0,0,70.77,24.91Z"/><path class="cls-9" d="M76.59,24.21a2.18,2.18,0,0,1,2.2,2.17c0,.08,0,.15,0,.23a2.23,2.23,0,0,1-2,2.47l-.31,0A2.2,2.2,0,0,1,74.24,27c0-.1,0-.21,0-.32a2.29,2.29,0,0,1,2.1-2.44A1.92,1.92,0,0,1,76.59,24.21Zm0,4.26c.93,0,1.42-.73,1.42-1.93,0-.79-.32-1.71-1.36-1.71-1.53,0-1.53,1.53-1.53,1.87,0,.55.16,1.77,1.39,1.77Z"/><path class="cls-9" d="M82.9,22.05c1.67,0,2.94,1.16,2.94,3.46,0,1.72-.71,3.45-3.2,3.45H80.17V22.05Zm-1.79,6.11h1.64c1.44,0,2.15-1,2.15-2.64s-.64-2.64-2.2-2.64H81.18Z"/><path class="cls-9" d="M87.53,22.05h3.32a1.84,1.84,0,0,1,2,1.69v.08a1.54,1.54,0,0,1-1,1.53A1.63,1.63,0,0,1,93,27.08,1.93,1.93,0,0,1,91.11,29l-.25,0H87.53ZM90.44,25c.62,0,1.42-.13,1.42-1.09,0-.56-.32-1-1.18-1H88.4V25Zm.2,3.17c.67,0,1.52-.1,1.52-1.16s-.59-1.24-1.42-1.24H88.4v2.4Z"/><path class="cls-10" d="M69.8,0h3.71V17.44H69.8ZM64.88,15.93l.78,1.51h2V10.19c0-3.85-1.6-6.23-5.53-6.23A9.26,9.26,0,0,0,57,5.66l1.1,3.19a5.29,5.29,0,0,1,3.5-1.52c1.26,0,2.45.52,2.45,1.9-5.84,0-7.28,2.74-7.28,4.82a4.07,4.07,0,0,0,4.32,3.8A4.56,4.56,0,0,0,64.88,15.93ZM54.4,13.85a6,6,0,0,1-2.83.75c-1.73,0-3.25-.68-3.42-2.44H56c.66-5-1.86-8.06-5.56-8.06s-5.88,3.18-5.88,6.75c0,3.75,1.89,6.88,6.59,6.88a9.68,9.68,0,0,0,4.29-1Zm24.84,3.62H75.59v-13h2l.72,1.79a4,4,0,0,1,3.57-2.2,3.91,3.91,0,0,1,3.48,2,3.52,3.52,0,0,1,3.51-2c3.6,0,4.17,3.34,4.17,5v8.34H89.39V10.24C89.39,9,89.2,7.66,88,7.66c-1,0-1.88,1-1.88,2.63v7.14H82.47v-7.3c0-.8-.1-2.49-1.31-2.49s-1.91,1.41-1.91,2.6Zm-42.78,0h3.66V10.24c0-1.19.29-2.66,1.5-2.66a2.17,2.17,0,0,1,1.48.52s1.33-3,1.32-3h0a3.39,3.39,0,0,0-2.3-.93,3.1,3.1,0,0,0-2.94,2.06l-.72-1.7h-2ZM48.2,9.34h4.3C52.4,7.6,51.37,7,50.37,7A2.32,2.32,0,0,0,48.2,9.34Zm12.19,4.2c0,.88,1.41,1.72,2.59,1.09S64.05,13.17,64,12v-.29C61.86,11.67,60.39,12.46,60.39,13.54Z"/></g></g></svg>